<?xml version="1.0" standalone="no"?>
<!DOCTYPE svg PUBLIC "-//W3C//DTD SVG 20010904//EN"
 "http://www.w3.org/TR/2001/REC-SVG-20010904/DTD/svg10.dtd">
<svg version="1.0" xmlns="http://www.w3.org/2000/svg"
 width="1080.000000pt" height="1080.000000pt" viewBox="0 0 1080.000000 1080.000000"
 preserveAspectRatio="xMidYMid meet">

<g transform="translate(0.000000,1080.000000) scale(0.100000,-0.100000)"
fill="#000000" stroke="none">
<path d="M6116 8785 c-3 -9 -6 -25 -6 -35 0 -11 -6 -34 -14 -52 -8 -18 -24
-71 -37 -118 -12 -47 -25 -94 -30 -105 -5 -11 -13 -38 -19 -60 -18 -76 -48
-180 -60 -209 -13 -36 -1 -52 47 -62 29 -6 31 -4 38 27 8 39 45 159 49 159 9
0 156 -40 177 -48 27 -11 31 -18 76 -151 25 -73 32 -85 60 -97 40 -17 40 -17
46 0 3 8 -8 52 -25 98 -37 101 -44 138 -29 138 18 0 104 40 125 59 33 28 66
112 66 168 0 67 -11 93 -60 147 -45 49 -100 74 -270 121 -52 15 -102 29 -111
32 -9 3 -19 -3 -23 -12z m136 -101 c195 -48 247 -95 235 -211 -7 -67 -31 -96
-97 -118 -44 -15 -51 -14 -141 9 -52 14 -106 29 -121 35 -29 11 -30 9 13 146
11 39 26 89 32 113 6 23 11 42 13 42 1 0 31 -7 66 -16z"/>
<path d="M5334 8703 c-12 -2 -40 -20 -62 -39 -22 -18 -43 -34 -46 -34 -3 0 -6
16 -6 35 0 34 -1 35 -42 35 l-41 0 8 -157 c4 -87 10 -198 14 -248 l6 -90 35 0
35 0 0 161 0 160 29 38 c16 21 45 45 65 52 59 24 66 30 66 60 0 30 -15 37 -61
27z"/>
<path d="M4680 8624 c-49 -21 -109 -81 -131 -132 -51 -116 8 -273 123 -333 53
-27 169 -26 234 2 50 22 114 75 114 93 0 6 -11 19 -24 28 -23 16 -24 16 -52
-13 -17 -18 -53 -37 -94 -50 l-67 -22 -55 25 c-90 42 -128 118 -58 118 17 0
47 7 67 15 19 8 50 15 69 15 18 0 53 6 76 14 24 8 67 17 96 21 l53 7 -7 32
c-16 73 -88 163 -150 186 -38 15 -155 11 -194 -6z m209 -93 c31 -29 42 -46 39
-63 -3 -20 -10 -24 -60 -30 -31 -4 -81 -14 -110 -22 -29 -8 -75 -17 -102 -20
l-49 -6 7 43 c13 86 76 137 171 137 58 0 64 -2 104 -39z"/>
<path d="M4125 8449 c-52 -27 -92 -66 -114 -108 l-18 -33 -13 31 c-7 17 -16
31 -20 31 -18 0 -70 -23 -70 -31 0 -5 13 -37 29 -71 16 -35 39 -90 52 -123 13
-33 36 -84 52 -114 15 -30 27 -59 27 -64 0 -5 7 -25 16 -45 44 -97 53 -118 58
-137 4 -11 15 -31 25 -44 17 -23 21 -23 50 -11 37 15 37 11 -21 149 -22 51
-38 95 -36 96 2 2 23 -1 48 -6 107 -24 220 33 276 141 26 49 23 150 -5 211
-22 50 -95 123 -137 139 -47 18 -155 12 -199 -11z m169 -72 c22 -12 53 -39 70
-60 28 -35 31 -46 31 -106 0 -82 -26 -128 -92 -160 -88 -42 -170 -17 -227 70
-21 31 -26 51 -26 102 0 55 4 67 32 101 35 43 97 76 143 76 17 0 48 -10 69
-23z"/>
<path d="M6745 8343 c-109 -44 -165 -129 -166 -249 -1 -86 16 -128 72 -178 64
-59 115 -79 194 -80 l70 -1 0 30 c0 29 -2 30 -56 36 -116 13 -209 95 -209 186
0 78 -4 80 293 -81 38 -21 75 -36 83 -34 19 4 54 99 54 146 0 51 -46 137 -93
175 -46 37 -123 67 -171 66 -17 0 -49 -7 -71 -16z m162 -79 c50 -24 85 -76 90
-132 7 -85 -1 -85 -141 -12 -162 84 -163 85 -145 106 43 53 129 69 196 38z"/>
<path d="M5514 8302 c-6 -4 -16 -17 -23 -29 -18 -34 11 -73 53 -73 41 0 56 16
56 57 0 22 -6 36 -19 43 -23 12 -51 13 -67 2z"/>
<path d="M3620 8161 c-78 -16 -156 -75 -192 -145 -15 -29 -20 -59 -20 -111 0
-61 4 -80 30 -126 35 -64 88 -104 162 -124 152 -40 320 88 320 244 0 81 -15
122 -61 175 -65 74 -151 105 -239 87z m98 -87 c53 -22 88 -59 113 -121 20 -50
21 -58 8 -96 -19 -57 -87 -122 -136 -130 -62 -10 -109 2 -148 40 -72 70 -91
143 -56 218 22 49 46 70 97 89 51 19 77 19 122 0z"/>
<path d="M7245 8056 c-3 -9 -7 -23 -10 -31 -3 -10 7 -16 33 -21 124 -23 217
-127 178 -201 -29 -57 -36 -57 -112 3 -91 73 -133 94 -190 94 -41 0 -51 -5
-85 -39 -36 -35 -39 -43 -39 -93 0 -42 6 -62 25 -89 48 -65 123 -109 184 -109
40 0 40 0 29 -26 -11 -23 -10 -29 11 -46 13 -10 27 -17 31 -16 8 3 93 104 167
199 94 119 94 204 -2 295 -62 59 -111 85 -172 92 -33 4 -44 1 -48 -12z m35
-282 c43 -31 81 -63 84 -70 3 -8 -7 -28 -22 -45 -51 -57 -142 -48 -213 23 -41
41 -46 70 -19 113 33 54 71 49 170 -21z"/>
<path d="M3021 7966 c-13 -14 -22 -29 -20 -34 2 -6 61 -70 130 -143 69 -74
152 -163 185 -199 32 -35 80 -87 106 -115 l47 -50 25 24 c14 14 26 29 26 35 0
6 -24 36 -53 66 -29 30 -102 109 -162 175 -133 147 -247 265 -256 265 -3 0
-16 -11 -28 -24z"/>
<path d="M7604 7625 c-98 -49 -144 -122 -144 -230 0 -78 19 -125 74 -184 38
-40 119 -81 164 -81 31 0 32 2 32 39 0 38 -1 38 -44 43 -51 6 -96 37 -131 90
-47 70 -23 166 56 229 39 31 49 34 109 34 51 0 72 -5 97 -23 41 -29 83 -102
83 -145 0 -26 6 -37 26 -47 22 -12 27 -12 34 0 17 27 11 104 -11 145 -71 136
-221 192 -345 130z"/>
<path d="M2945 7566 c-72 -33 -131 -103 -145 -172 -15 -69 -4 -139 27 -188 26
-41 72 -85 87 -86 5 0 18 -8 28 -17 15 -13 38 -17 101 -17 96 0 123 12 190 79
53 55 73 92 82 159 8 52 0 66 -42 66 -17 0 -23 -6 -23 -22 0 -70 -57 -160
-121 -194 -60 -31 -180 -8 -154 29 6 8 61 77 123 153 61 75 112 142 112 149 0
30 -116 85 -178 85 -20 0 -60 -11 -87 -24z m144 -67 c17 -6 31 -13 31 -15 0
-8 -56 -81 -129 -167 l-75 -87 -22 21 c-48 45 -39 151 18 206 53 51 111 65
177 42z"/>
<path d="M8045 7306 c-18 -13 -18 -14 5 -45 28 -40 30 -37 -105 -123 -126 -79
-136 -87 -163 -122 -40 -52 -21 -148 40 -202 38 -35 57 -37 70 -9 10 22 8 29
-15 53 -42 44 -50 76 -25 107 27 35 240 175 265 175 4 0 24 -25 43 -55 19 -30
37 -55 40 -55 3 0 17 8 32 18 l27 18 -27 35 c-15 18 -33 46 -40 61 -11 26 -9
29 33 54 25 14 45 29 45 33 0 4 -10 21 -23 38 l-23 31 -44 -29 -45 -30 -25 31
c-28 34 -38 36 -65 16z"/>
<path d="M2626 7195 c-9 -13 -16 -29 -16 -35 0 -7 21 -39 48 -72 26 -33 56
-72 67 -86 11 -15 45 -58 75 -97 31 -38 59 -78 63 -88 6 -15 2 -16 -31 -12
-20 3 -95 10 -167 16 -71 6 -152 14 -179 16 -43 5 -52 2 -67 -18 -39 -51 -30
-56 99 -63 64 -3 149 -10 187 -16 39 -6 104 -13 146 -16 74 -6 76 -6 97 21 12
15 22 35 22 44 0 9 -24 47 -53 85 -28 37 -68 90 -87 116 -19 26 -48 63 -65 83
-16 20 -48 61 -70 91 -22 31 -43 56 -46 56 -4 0 -14 -11 -23 -25z"/>
<path d="M8565 6755 c-30 -29 -31 -35 -4 -69 24 -30 59 -34 82 -8 24 27 21 58
-9 81 -34 27 -40 26 -69 -4z"/>
<path d="M7899 6726 c-26 -56 21 -107 73 -80 56 29 37 104 -27 104 -28 0 -38
-5 -46 -24z"/>
<path d="M8320 6650 c-36 -16 -110 -47 -165 -70 -55 -23 -109 -45 -120 -50
-82 -36 -121 -50 -140 -50 -32 0 -66 42 -72 90 -5 39 -7 41 -37 38 -30 -3 -31
-5 -29 -46 2 -53 30 -109 66 -136 49 -36 171 -17 286 45 9 4 47 20 85 35 38
14 77 29 85 34 40 18 90 39 134 55 48 17 56 30 37 66 -15 26 -52 23 -130 -11z"/>
<path d="M2390 6597 c-75 -40 -130 -138 -130 -232 0 -53 38 -133 83 -172 41
-36 133 -73 181 -73 47 0 111 25 156 60 72 57 117 198 93 290 -8 30 -13 35
-39 35 l-29 0 0 -85 c-1 -76 -4 -89 -29 -128 -40 -58 -84 -84 -140 -80 l-44 3
65 193 c36 106 62 196 59 200 -4 3 -46 8 -94 10 -77 3 -92 1 -132 -21z m143
-54 c5 -8 -26 -115 -49 -168 -7 -16 -17 -48 -23 -70 -22 -81 -46 -85 -98 -17
-25 32 -33 54 -33 83 0 64 44 134 105 167 23 13 92 16 98 5z"/>
<path d="M8358 6415 c-56 -38 -60 -52 -56 -189 3 -139 -3 -156 -58 -156 -24 0
-38 7 -52 28 -26 36 -44 129 -40 200 3 56 3 57 -26 60 -37 5 -44 -4 -52 -61
-5 -35 0 -71 17 -135 20 -77 29 -93 71 -134 39 -40 53 -48 83 -48 20 0 49 7
65 15 54 28 60 47 60 192 0 106 3 135 16 147 24 25 71 20 96 -9 31 -36 59
-132 52 -177 -4 -30 -2 -38 15 -47 44 -24 51 -16 51 62 0 119 -43 218 -111
257 -49 27 -86 25 -131 -5z"/>
<path d="M2165 6046 c-97 -45 -150 -108 -186 -218 -10 -33 -19 -86 -19 -117 0
-31 -7 -92 -15 -136 -20 -110 -21 -105 28 -105 23 0 61 -5 83 -10 23 -5 115
-16 205 -25 90 -8 200 -19 243 -25 43 -5 83 -7 87 -4 5 3 9 33 9 67 0 34 5 82
11 107 6 25 11 88 12 140 1 87 -2 101 -31 161 -59 124 -163 189 -300 189 -60
0 -88 -5 -127 -24z m263 -99 c98 -63 130 -151 112 -317 -5 -56 -10 -108 -10
-116 0 -17 -82 -19 -145 -4 -22 5 -111 15 -199 22 -110 8 -160 16 -163 25 -8
20 14 192 32 251 19 63 73 127 130 154 61 29 185 21 243 -15z"/>
<path d="M8204 5624 c-3 -12 -4 -102 -2 -200 3 -170 4 -182 30 -234 46 -96 92
-136 197 -170 80 -25 121 -25 205 1 51 16 78 32 115 68 87 85 105 146 116 383
l7 156 -53 6 c-30 4 -179 7 -332 9 -277 2 -278 2 -283 -19z m577 -83 c3 -3 3
-67 0 -141 -6 -125 -8 -139 -34 -183 -33 -55 -93 -102 -151 -118 -51 -14 -133
-6 -177 16 -44 22 -119 95 -119 115 0 9 -7 25 -15 36 -11 14 -14 51 -15 150 0
72 3 134 7 138 8 8 496 -4 504 -13z"/>
<path d="M2600 5039 c-8 -5 -26 -9 -39 -9 -13 0 -62 -9 -110 -20 -47 -11 -120
-27 -161 -36 -41 -8 -102 -22 -135 -29 -33 -8 -88 -20 -122 -26 -83 -15 -101
-28 -85 -63 9 -21 18 -26 49 -26 21 0 56 5 78 11 58 15 138 29 143 25 2 -2 -4
-19 -13 -36 -13 -25 -16 -52 -13 -115 3 -93 27 -140 94 -192 33 -25 47 -28
122 -32 47 -2 102 2 122 8 51 15 119 77 141 129 45 104 9 246 -78 303 l-25 16
31 11 c27 9 31 16 31 46 0 39 -9 49 -30 35z m-94 -135 c58 -19 79 -43 99 -111
30 -98 -17 -184 -118 -216 -70 -22 -74 -22 -135 9 -142 71 -128 263 23 318 53
19 75 19 131 0z"/>
<path d="M8273 4924 c-33 -8 -121 -91 -145 -138 -39 -77 -34 -244 8 -260 35
-13 75 40 44 59 -17 11 -11 110 9 156 31 69 87 109 153 109 28 0 30 -2 25 -27
-10 -47 -34 -143 -61 -247 -32 -120 -32 -132 -3 -140 79 -21 177 6 235 65 49
49 64 85 70 161 8 112 -35 190 -133 240 -40 21 -152 33 -202 22z m222 -135
c45 -41 45 -42 45 -109 0 -66 -1 -69 -42 -114 -36 -39 -51 -47 -90 -53 -45 -5
-48 -4 -48 18 0 53 66 299 81 299 5 0 30 -19 54 -41z"/>
<path d="M2730 4463 c-23 -8 -157 -70 -238 -110 -99 -48 -127 -89 -127 -184 0
-50 5 -72 18 -86 9 -11 17 -25 17 -31 0 -14 49 -72 62 -72 5 0 21 -9 34 -19
l24 -19 -27 -20 c-26 -19 -27 -22 -14 -46 16 -29 40 -33 79 -12 31 17 182 86
188 86 3 0 149 66 174 79 19 10 24 44 10 70 -12 24 -11 24 -145 -39 -132 -62
-176 -74 -226 -59 -48 15 -89 59 -108 116 -12 38 -12 47 3 88 17 44 22 47 124
96 179 85 188 89 200 89 16 0 15 11 -4 48 -16 33 -18 34 -44 25z"/>
<path d="M7955 4271 c-18 -40 -18 -42 1 -63 10 -12 33 -38 49 -57 44 -51 139
-155 217 -239 58 -61 71 -71 87 -63 21 12 34 48 20 56 -5 3 -62 65 -126 138
-65 73 -126 141 -135 151 -10 11 -18 24 -18 29 0 6 83 7 214 2 l214 -7 17 32
c29 56 23 57 -263 59 l-258 2 -19 -40z"/>
<path d="M7820 3923 c-100 -43 -180 -159 -180 -262 0 -47 2 -51 24 -51 37 0
55 10 49 26 -8 21 14 100 39 138 44 66 137 102 201 77 34 -13 38 -5 -97 -201
-75 -108 -97 -147 -90 -158 36 -56 192 -72 274 -28 113 60 160 218 101 334
-56 110 -214 172 -321 125z m264 -188 c9 -18 16 -45 16 -59 0 -40 -35 -100
-77 -135 -32 -27 -46 -31 -94 -31 -84 0 -88 13 -31 97 26 38 60 89 76 114 53
79 57 82 77 63 10 -9 25 -31 33 -49z"/>
<path d="M2947 3903 c-4 -3 -7 -17 -7 -29 0 -18 11 -29 48 -48 58 -29 75 -48
103 -110 26 -59 22 -120 -10 -165 -12 -17 -25 -31 -29 -31 -4 0 -60 75 -125
165 -130 181 -126 179 -181 114 -76 -90 -91 -184 -44 -274 31 -59 67 -95 125
-124 129 -65 309 23 349 170 31 117 -35 257 -148 315 -48 25 -70 29 -81 17z
m-96 -210 c19 -26 51 -72 72 -103 21 -30 48 -65 59 -77 24 -26 18 -38 -26 -53
-71 -23 -172 32 -197 107 -20 63 8 173 45 173 7 0 28 -21 47 -47z"/>
<path d="M7483 3539 c-12 -4 -24 -18 -28 -30 -6 -18 -1 -29 26 -52 19 -16 84
-75 144 -131 61 -57 133 -122 161 -147 28 -24 75 -65 105 -91 56 -49 76 -57
97 -36 21 21 13 44 -30 83 -24 21 -104 95 -178 164 -232 217 -272 249 -297
240z"/>
<path d="M3277 3533 c-16 -15 -4 -43 33 -81 46 -45 49 -66 18 -108 -31 -41
-198 -204 -209 -204 -5 0 -30 21 -55 46 l-46 46 -24 -23 -24 -23 50 -51 50
-51 -26 -25 c-46 -43 -49 -58 -18 -90 l27 -29 34 35 c39 40 53 43 78 15 23
-25 37 -25 59 -1 16 18 16 20 -8 46 -15 16 -26 31 -26 34 0 4 41 47 91 96 122
120 149 158 149 207 0 46 -18 83 -57 119 -44 41 -81 57 -96 42z"/>
<path d="M7275 3311 c-49 -12 -126 -73 -158 -124 -25 -41 -29 -57 -29 -125 0
-91 11 -118 73 -181 61 -61 93 -75 169 -76 80 0 139 25 198 87 57 58 76 111
70 193 -14 166 -156 266 -323 226z m143 -90 c45 -23 63 -43 91 -98 26 -53 26
-83 0 -135 -27 -52 -64 -84 -116 -98 -79 -23 -149 9 -205 92 -49 75 -34 156
42 221 39 33 50 37 97 37 33 0 68 -7 91 -19z"/>
<path d="M3559 3237 c-52 -65 -148 -203 -169 -245 -32 -61 -25 -143 15 -196
44 -58 118 -96 188 -96 58 0 69 -8 42 -30 -21 -17 -19 -29 8 -51 30 -25 44
-24 65 9 18 29 149 215 215 304 43 60 45 71 15 92 -31 22 -40 20 -66 -17 -91
-128 -158 -211 -185 -228 -66 -41 -184 0 -220 77 -26 53 -10 92 88 230 47 65
85 126 85 135 0 13 -41 51 -52 48 -2 0 -15 -15 -29 -32z"/>
<path d="M6789 3191 l-24 -20 53 -104 c28 -58 52 -107 52 -110 0 -3 -26 -3
-57 0 -100 9 -201 -51 -244 -144 -51 -111 1 -267 110 -331 39 -23 57 -27 121
-27 113 1 191 49 228 139 l15 39 23 -28 c21 -26 24 -27 53 -15 17 7 31 17 31
22 0 6 -22 52 -49 102 -142 265 -220 411 -244 459 -22 42 -35 45 -68 18z m73
-308 c52 -20 79 -45 107 -100 43 -86 15 -178 -72 -232 -75 -46 -186 -17 -230
61 -65 113 -29 223 86 270 53 21 58 21 109 1z"/>
<path d="M4082 2870 c-97 -32 -161 -118 -170 -226 -6 -79 10 -126 62 -182 105
-115 277 -122 379 -17 54 55 70 97 70 185 1 68 -3 82 -29 126 -36 58 -95 98
-177 119 -70 18 -69 18 -135 -5z m194 -97 c40 -30 73 -92 74 -136 0 -42 -47
-133 -81 -158 -114 -81 -279 0 -279 136 0 69 69 174 125 188 47 13 124 -1 161
-30z"/>
<path d="M6170 2727 c-76 -31 -86 -36 -118 -70 -25 -25 -32 -41 -28 -55 11
-34 37 -35 70 -3 69 65 158 87 230 57 35 -15 86 -63 86 -82 0 -13 -37 -29
-115 -49 -175 -45 -248 -72 -256 -92 -11 -29 34 -117 75 -147 40 -30 109 -56
146 -56 50 0 142 38 178 72 65 64 74 88 70 191 -3 83 -6 96 -33 137 -17 24
-49 58 -72 74 -36 25 -53 30 -120 33 -51 2 -90 -2 -113 -10z m274 -245 c9 -26
-29 -106 -63 -135 -16 -13 -50 -30 -76 -37 -42 -12 -51 -11 -93 6 -29 12 -55
33 -70 54 -22 32 -22 35 -6 47 10 7 26 13 37 13 10 0 33 6 50 14 43 18 167 53
194 55 13 1 24 -6 27 -17z"/>
<path d="M4711 2681 c-6 -10 -13 -38 -17 -62 -4 -24 -10 -48 -14 -54 -4 -5
-13 -34 -19 -63 -26 -124 -74 -172 -170 -172 -56 0 -61 -2 -67 -24 -3 -14 -3
-29 0 -35 15 -24 96 -22 159 4 16 7 18 4 15 -26 -3 -29 1 -35 23 -43 41 -14
56 -2 67 56 6 29 29 121 51 203 63 228 62 216 9 229 -21 5 -30 2 -37 -13z"/>
<path d="M5808 2638 c-15 -12 -15 -24 -1 -146 8 -73 12 -152 9 -176 -8 -51
-45 -91 -102 -111 -31 -10 -40 -19 -42 -40 -2 -15 1 -32 6 -37 17 -17 86 10
122 47 40 41 50 44 50 10 0 -29 36 -43 68 -26 22 12 22 21 2 136 -5 28 -12 79
-15 115 -4 36 -13 104 -22 153 -14 78 -17 87 -37 87 -12 0 -29 -6 -38 -12z"/>
<path d="M5247 2607 c-3 -7 -8 -63 -12 -124 -4 -61 -11 -116 -14 -122 -6 -10
-118 -5 -301 12 -18 1 -26 -4 -34 -26 -6 -17 -6 -30 0 -36 5 -5 70 -14 144
-20 198 -16 183 -7 175 -110 -3 -47 -8 -101 -11 -120 -5 -32 -7 -33 -42 -28
-90 14 -311 30 -326 24 -10 -4 -16 -18 -16 -36 0 -28 1 -29 68 -34 37 -2 105
-9 152 -15 163 -21 230 -21 240 -3 5 10 14 84 20 167 6 82 15 179 20 217 16
109 23 244 14 249 -25 15 -72 18 -77 5z"/>
<path d="M5457 2602 c-35 -38 -12 -102 37 -102 25 0 66 38 66 61 0 51 -70 78
-103 41z"/>
</g>
</svg>
